#N canvas 0 23 1366 719 10;
#X obj 1419 142 metro;
#X obj 1442 117 expr 60000/ $f1;
#X floatatom 138 799 20 0 0 2 BPM - -, f 20;
#X obj 1331 174 cyclone/counter 15;
#X obj 1472 158 bng 8 250 50 0 empty empty empty 17 7 0 10 -262144
-1 -1;
#X obj 206 176 hradio 50 1 0 16 empty empty empty 0 -8 0 10 -258113
-262144 -1 13;
#X obj 1366 299 spigot;
#X obj 1368 222 select 0 1 2 3 4 5 6 7 8 9 10 11 12 13 14 15;
#X obj 255 230 tgl 50 0 empty empty empty 17 7 0 10 -1 -4160 -1 0 1
;
#X obj 1410 298 spigot;
#X obj 305 230 tgl 50 0 empty empty empty 17 7 0 10 -258113 -4160 -1
0 1;
#X obj 1455 298 spigot;
#X obj 355 230 tgl 50 0 empty empty empty 17 7 0 10 -1 -4160 -1 0 1
;
#X obj 1500 297 spigot;
#X obj 405 230 tgl 50 0 empty empty empty 17 7 0 10 -258113 -262144
-1 0 1;
#X obj 1545 297 spigot;
#X obj 455 230 tgl 50 0 empty empty empty 17 7 0 10 -1 -4160 -1 0 1
;
#X obj 1589 297 spigot;
#X obj 505 230 tgl 50 0 empty empty empty 17 7 0 10 -258113 -4160 -1
0 1;
#X obj 1633 296 spigot;
#X obj 555 230 tgl 50 0 empty empty empty 17 7 0 10 -1 -4160 -1 0 1
;
#X obj 1366 337 spigot;
#X obj 655 230 tgl 50 0 empty empty empty 17 7 0 10 -1 -4160 -1 0 1
;
#X obj 1410 337 spigot;
#X obj 705 230 tgl 50 0 empty empty empty 17 7 0 10 -258113 -4160 -1
0 1;
#X obj 1454 336 spigot;
#X obj 755 230 tgl 50 0 empty empty empty 17 7 0 10 -1 -4160 -1 0 1
;
#X obj 1499 335 spigot;
#X obj 805 230 tgl 50 0 empty empty empty 17 7 0 10 -258113 -262144
-1 0 1;
#X obj 1544 336 spigot;
#X obj 855 230 tgl 50 0 empty empty empty 17 7 0 10 -1 -4160 -1 0 1
;
#X obj 1589 335 spigot;
#X obj 905 230 tgl 50 0 empty empty empty 17 7 0 10 -258113 -4160 -1
0 1;
#X obj 1634 334 spigot;
#X obj 955 230 tgl 50 0 empty empty empty 17 7 0 10 -1 -4160 -1 0 1
;
#X obj 1320 300 spigot;
#X obj 1320 338 spigot;
#X obj 605 230 tgl 50 0 empty empty empty 17 7 0 10 -258113 -262144
-1 0 1;
#X obj 205 230 tgl 50 0 empty empty empty 17 7 0 10 -258113 -262144
-1 0 1;
#X obj 2533 613 dac~;
#X obj 2342 484 hip~ 5;
#X obj 1407 374 tabplay~ sonido1;
#X obj 2638 163 openpanel;
#X obj 2638 225 soundfiler;
#X obj 2634 106 table sonido1;
#X msg 2638 195 read -resize \$1 sonido1;
#X obj 2796 163 openpanel;
#X obj 2796 225 soundfiler;
#X obj 2949 163 openpanel;
#X obj 2949 225 soundfiler;
#X obj 3100 163 openpanel;
#X obj 3100 225 soundfiler;
#X obj 2638 324 openpanel;
#X obj 2638 386 soundfiler;
#X obj 2796 324 openpanel;
#X obj 2796 386 soundfiler;
#X obj 2949 324 openpanel;
#X obj 2949 386 soundfiler;
#X obj 3100 324 openpanel;
#X obj 3100 386 soundfiler;
#X obj 2639 483 openpanel;
#X obj 2639 545 soundfiler;
#X obj 2797 483 openpanel;
#X obj 2797 545 soundfiler;
#X obj 2950 483 openpanel;
#X obj 2950 545 soundfiler;
#X obj 3101 483 openpanel;
#X obj 3101 545 soundfiler;
#X obj 2639 644 openpanel;
#X obj 2639 706 soundfiler;
#X obj 2797 644 openpanel;
#X obj 2797 706 soundfiler;
#X obj 2950 644 openpanel;
#X obj 2950 706 soundfiler;
#X obj 3101 644 openpanel;
#X obj 3101 706 soundfiler;
#X obj 2792 106 table sonido2;
#X msg 2796 195 read -resize \$1 sonido2;
#X obj 2945 106 table sonido3;
#X msg 2949 195 read -resize \$1 sonido3;
#X obj 3096 106 table sonido4;
#X msg 3100 195 read -resize \$1 sonido4;
#X obj 2634 267 table sonido5;
#X msg 2638 356 read -resize \$1 sonido5;
#X obj 2792 267 table sonido6;
#X msg 2796 356 read -resize \$1 sonido6;
#X obj 2945 267 table sonido7;
#X msg 2949 356 read -resize \$1 sonido7;
#X obj 3096 267 table sonido8;
#X msg 3100 356 read -resize \$1 sonido8;
#X obj 2635 426 table sonido9;
#X msg 2639 515 read -resize \$1 sonido9;
#X obj 2793 426 table sonido10;
#X msg 2797 515 read -resize \$1 sonido10;
#X obj 2946 426 table sonido11;
#X msg 2950 515 read -resize \$1 sonido11;
#X obj 3097 426 table sonido12;
#X msg 3101 515 read -resize \$1 sonido12;
#X obj 2635 587 table sonido13;
#X msg 2639 676 read -resize \$1 sonido13;
#X obj 2793 587 table sonido14;
#X msg 2797 676 read -resize \$1 sonido14;
#X obj 2946 587 table sonido15;
#X msg 2950 676 read -resize \$1 sonido15;
#X obj 3097 587 table sonido16;
#X msg 3101 676 read -resize \$1 sonido16;
#X obj 196 1160 tabplay~ sonido1;
#X obj 300 1160 tabplay~ sonido1;
#X obj 405 1160 tabplay~ sonido1;
#X obj 509 1160 tabplay~ sonido1;
#X obj 196 1191 tabplay~ sonido1;
#X obj 300 1191 tabplay~ sonido1;
#X obj 405 1191 tabplay~ sonido1;
#X obj 509 1191 tabplay~ sonido1;
#X obj 1366 514 spigot;
#X obj 1368 437 select 0 1 2 3 4 5 6 7 8 9 10 11 12 13 14 15;
#X obj 1410 513 spigot;
#X obj 1455 513 spigot;
#X obj 1500 512 spigot;
#X obj 1545 512 spigot;
#X obj 1589 512 spigot;
#X obj 1633 511 spigot;
#X obj 1366 552 spigot;
#X obj 1410 552 spigot;
#X obj 1454 551 spigot;
#X obj 1499 550 spigot;
#X obj 1544 551 spigot;
#X obj 1589 550 spigot;
#X obj 1634 549 spigot;
#X obj 1320 515 spigot;
#X obj 1320 553 spigot;
#X obj 1790 298 spigot;
#X obj 1793 221 select 0 1 2 3 4 5 6 7 8 9 10 11 12 13 14 15;
#X obj 1834 297 spigot;
#X obj 1879 297 spigot;
#X obj 1924 296 spigot;
#X obj 1969 296 spigot;
#X obj 2013 296 spigot;
#X obj 2057 295 spigot;
#X obj 1790 336 spigot;
#X obj 1833 335 spigot;
#X obj 1878 335 spigot;
#X obj 1923 334 spigot;
#X obj 1968 335 spigot;
#X obj 2013 334 spigot;
#X obj 2058 333 spigot;
#X obj 1744 299 spigot;
#X obj 1744 337 spigot;
#X obj 1791 516 spigot;
#X obj 1793 439 select 0 1 2 3 4 5 6 7 8 9 10 11 12 13 14 15;
#X obj 1835 515 spigot;
#X obj 1880 515 spigot;
#X obj 1925 514 spigot;
#X obj 1970 514 spigot;
#X obj 2014 514 spigot;
#X obj 2058 513 spigot;
#X obj 1791 554 spigot;
#X obj 1835 554 spigot;
#X obj 1879 553 spigot;
#X obj 1924 552 spigot;
#X obj 1969 553 spigot;
#X obj 2014 552 spigot;
#X obj 2059 551 spigot;
#X obj 1745 517 spigot;
#X obj 1745 555 spigot;
#X obj 1835 372 tabplay~ sonido2;
#X obj 1409 606 tabplay~ sonido3;
#X obj 1832 595 tabplay~ sonido4;
#X obj 1015 231 hsl 50 50 0 1 0 0 empty empty Volumen -2 -8 0 10 -262144
-1 -1 2900 1;
#X obj 1487 401 *~;
#X obj 1924 402 *~;
#X obj 1493 635 *~;
#X obj 1921 624 *~;
#X obj 1346 763 spigot;
#X obj 1348 686 select 0 1 2 3 4 5 6 7 8 9 10 11 12 13 14 15;
#X obj 1390 762 spigot;
#X obj 1435 762 spigot;
#X obj 1480 761 spigot;
#X obj 1525 761 spigot;
#X obj 1569 761 spigot;
#X obj 1613 760 spigot;
#X obj 1346 801 spigot;
#X obj 1390 801 spigot;
#X obj 1434 800 spigot;
#X obj 1479 799 spigot;
#X obj 1524 800 spigot;
#X obj 1569 799 spigot;
#X obj 1614 798 spigot;
#X obj 1300 764 spigot;
#X obj 1300 802 spigot;
#X obj 1323 1032 spigot;
#X obj 1325 955 select 0 1 2 3 4 5 6 7 8 9 10 11 12 13 14 15;
#X obj 1367 1031 spigot;
#X obj 1412 1031 spigot;
#X obj 1457 1030 spigot;
#X obj 1502 1030 spigot;
#X obj 1546 1030 spigot;
#X obj 1590 1029 spigot;
#X obj 1323 1070 spigot;
#X obj 1367 1070 spigot;
#X obj 1411 1069 spigot;
#X obj 1456 1068 spigot;
#X obj 1501 1069 spigot;
#X obj 1546 1068 spigot;
#X obj 1591 1067 spigot;
#X obj 1277 1033 spigot;
#X obj 1277 1071 spigot;
#X obj 1747 816 spigot;
#X obj 1749 739 select 0 1 2 3 4 5 6 7 8 9 10 11 12 13 14 15;
#X obj 1791 815 spigot;
#X obj 1880 814 spigot;
#X obj 1834 816 spigot;
#X obj 1926 814 spigot;
#X obj 1970 814 spigot;
#X obj 2014 813 spigot;
#X obj 1747 854 spigot;
#X obj 1791 854 spigot;
#X obj 1835 853 spigot;
#X obj 1880 852 spigot;
#X obj 1925 853 spigot;
#X obj 1970 852 spigot;
#X obj 2015 851 spigot;
#X obj 1701 817 spigot;
#X obj 1701 855 spigot;
#X obj 1748 1034 spigot;
#X obj 1750 957 select 0 1 2 3 4 5 6 7 8 9 10 11 12 13 14 15;
#X obj 1792 1033 spigot;
#X obj 1837 1033 spigot;
#X obj 1882 1032 spigot;
#X obj 1927 1032 spigot;
#X obj 1971 1032 spigot;
#X obj 2015 1031 spigot;
#X obj 1748 1072 spigot;
#X obj 1792 1072 spigot;
#X obj 1836 1071 spigot;
#X obj 1881 1070 spigot;
#X obj 1926 1071 spigot;
#X obj 1971 1070 spigot;
#X obj 2016 1069 spigot;
#X obj 1702 1035 spigot;
#X obj 1702 1073 spigot;
#X obj 1467 865 *~;
#X obj 1881 920 *~;
#X obj 1450 1153 *~;
#X obj 1878 1142 *~;
#X obj 1387 838 tabplay~ sonido5;
#X obj 1792 890 tabplay~ sonido6;
#X obj 1366 1124 tabplay~ sonido7;
#X obj 1789 1113 tabplay~ sonido8;
#X obj 357 779 tgl 50 0 empty empty On/off 17 7 0 10 -262144 -1 -1
1 1;
#X obj 2505 538 freeverb~/freeverb~;
#X text 2525 512 libreria freeverb;
#X msg 1146 1035 wet \$1;
#X msg 1146 1083 dry \$1;
#X obj 440 780 hsl 50 50 0 1 0 0 empty empty Wet -2 -8 0 10 -1 -262144
-1 1400 1;
#X obj 541 782 hsl 50 50 1 0 0 0 empty empty Dry -2 -8 0 10 -1 -262144
-1 0 1;
#X obj 640 783 hsl 50 50 0 1 0 0 empty empty Roomsize -2 -8 0 10 -1
-262144 -1 0 1;
#X msg 1149 1147 roomsize \$1;
#X obj 2393 218 catch~ secuenciador;
#X obj 1523 401 throw~ secuenciador;
#X obj 1969 403 throw~ secuenciador;
#X obj 1538 636 throw~ secuenciador;
#X obj 1966 626 throw~ secuenciador;
#X obj 1504 864 throw~ secuenciador;
#X obj 1921 920 throw~ secuenciador;
#X obj 1490 1153 throw~ secuenciador;
#X obj 1928 1142 throw~ secuenciador;
#X obj 131 231 bng 50 250 50 0 empty empty Sound1 -15 -10 0 15 -1 -262144
-1;
#X obj 255 297 tgl 50 0 empty empty empty 17 7 0 10 -1 -4160 -1 0 1
;
#X obj 305 297 tgl 50 0 empty empty empty 17 7 0 10 -258113 -4160 -1
0 1;
#X obj 355 297 tgl 50 0 empty empty empty 17 7 0 10 -1 -4160 -1 0 1
;
#X obj 405 297 tgl 50 0 empty empty empty 17 7 0 10 -258113 -262144
-1 0 1;
#X obj 455 297 tgl 50 0 empty empty empty 17 7 0 10 -1 -4160 -1 0 1
;
#X obj 505 297 tgl 50 0 empty empty empty 17 7 0 10 -258113 -4160 -1
0 1;
#X obj 555 297 tgl 50 0 empty empty empty 17 7 0 10 -1 -4160 -1 0 1
;
#X obj 655 297 tgl 50 0 empty empty empty 17 7 0 10 -1 -4160 -1 0 1
;
#X obj 705 297 tgl 50 0 empty empty empty 17 7 0 10 -258113 -4160 -1
0 1;
#X obj 755 297 tgl 50 0 empty empty empty 17 7 0 10 -1 -4160 -1 0 1
;
#X obj 805 297 tgl 50 0 empty empty empty 17 7 0 10 -258113 -262144
-1 0 1;
#X obj 855 297 tgl 50 0 empty empty empty 17 7 0 10 -1 -4160 -1 0 1
;
#X obj 905 297 tgl 50 0 empty empty empty 17 7 0 10 -258113 -4160 -1
0 1;
#X obj 955 297 tgl 50 0 empty empty empty 17 7 0 10 -1 -4160 -1 0 1
;
#X obj 605 297 tgl 50 0 empty empty empty 17 7 0 10 -258113 -262144
-1 0 1;
#X obj 205 297 tgl 50 0 empty empty empty 17 7 0 10 -258113 -262144
-1 0 1;
#X obj 1016 298 hsl 50 50 0 1 0 0 empty empty Volumen -2 -8 0 10 -262144
-1 -1 2100 1;
#X obj 131 298 bng 50 250 50 0 empty empty Sound2 -15 -10 0 15 -1 -262144
-1;
#X obj 255 364 tgl 50 0 empty empty empty 17 7 0 10 -1 -4160 -1 0 1
;
#X obj 305 364 tgl 50 0 empty empty empty 17 7 0 10 -258113 -4160 -1
0 1;
#X obj 355 364 tgl 50 0 empty empty empty 17 7 0 10 -1 -4160 -1 0 1
;
#X obj 405 364 tgl 50 0 empty empty empty 17 7 0 10 -258113 -262144
-1 0 1;
#X obj 455 364 tgl 50 0 empty empty empty 17 7 0 10 -1 -4160 -1 0 1
;
#X obj 505 364 tgl 50 0 empty empty empty 17 7 0 10 -258113 -4160 -1
0 1;
#X obj 555 364 tgl 50 0 empty empty empty 17 7 0 10 -1 -4160 -1 0 1
;
#X obj 655 364 tgl 50 0 empty empty empty 17 7 0 10 -1 -4160 -1 0 1
;
#X obj 705 364 tgl 50 0 empty empty empty 17 7 0 10 -258113 -4160 -1
0 1;
#X obj 755 364 tgl 50 0 empty empty empty 17 7 0 10 -1 -4160 -1 0 1
;
#X obj 805 364 tgl 50 0 empty empty empty 17 7 0 10 -258113 -262144
-1 0 1;
#X obj 855 364 tgl 50 0 empty empty empty 17 7 0 10 -1 -4160 -1 0 1
;
#X obj 905 364 tgl 50 0 empty empty empty 17 7 0 10 -258113 -4160 -1
0 1;
#X obj 955 364 tgl 50 0 empty empty empty 17 7 0 10 -1 -4160 -1 0 1
;
#X obj 605 364 tgl 50 0 empty empty empty 17 7 0 10 -258113 -262144
-1 0 1;
#X obj 205 364 tgl 50 0 empty empty empty 17 7 0 10 -258113 -262144
-1 0 1;
#X obj 1016 365 hsl 50 50 0 1 0 0 empty empty Volumen -2 -8 0 10 -262144
-1 -1 3600 1;
#X obj 131 365 bng 50 250 50 0 empty empty Sound3 -15 -10 0 15 -1 -262144
-1;
#X obj 255 430 tgl 50 0 empty empty empty 17 7 0 10 -1 -4160 -1 0 1
;
#X obj 305 430 tgl 50 0 empty empty empty 17 7 0 10 -258113 -4160 -1
0 1;
#X obj 355 430 tgl 50 0 empty empty empty 17 7 0 10 -1 -4160 -1 0 1
;
#X obj 405 430 tgl 50 0 empty empty empty 17 7 0 10 -258113 -262144
-1 0 1;
#X obj 455 430 tgl 50 0 empty empty empty 17 7 0 10 -1 -4160 -1 0 1
;
#X obj 505 430 tgl 50 0 empty empty empty 17 7 0 10 -258113 -4160 -1
0 1;
#X obj 555 430 tgl 50 0 empty empty empty 17 7 0 10 -1 -4160 -1 0 1
;
#X obj 655 430 tgl 50 0 empty empty empty 17 7 0 10 -1 -4160 -1 0 1
;
#X obj 705 430 tgl 50 0 empty empty empty 17 7 0 10 -258113 -4160 -1
0 1;
#X obj 755 430 tgl 50 0 empty empty empty 17 7 0 10 -1 -4160 -1 0 1
;
#X obj 805 430 tgl 50 0 empty empty empty 17 7 0 10 -258113 -262144
-1 0 1;
#X obj 855 430 tgl 50 0 empty empty empty 17 7 0 10 -1 -4160 -1 0 1
;
#X obj 905 430 tgl 50 0 empty empty empty 17 7 0 10 -258113 -4160 -1
0 1;
#X obj 955 430 tgl 50 0 empty empty empty 17 7 0 10 -1 -4160 -1 0 1
;
#X obj 605 430 tgl 50 0 empty empty empty 17 7 0 10 -258113 -262144
-1 0 1;
#X obj 205 430 tgl 50 0 empty empty empty 17 7 0 10 -258113 -262144
-1 0 1;
#X obj 1016 431 hsl 50 50 0 1 0 0 empty empty Volumen -2 -8 0 10 -262144
-1 -1 3800 1;
#X obj 131 431 bng 50 250 50 0 empty empty Sound4 -15 -10 0 15 -1 -262144
-1;
#X obj 255 497 tgl 50 0 empty empty empty 17 7 0 10 -1 -4160 -1 0 1
;
#X obj 305 497 tgl 50 0 empty empty empty 17 7 0 10 -258113 -4160 -1
0 1;
#X obj 355 497 tgl 50 0 empty empty empty 17 7 0 10 -1 -4160 -1 0 1
;
#X obj 405 497 tgl 50 0 empty empty empty 17 7 0 10 -258113 -262144
-1 0 1;
#X obj 455 497 tgl 50 0 empty empty empty 17 7 0 10 -1 -4160 -1 0 1
;
#X obj 505 497 tgl 50 0 empty empty empty 17 7 0 10 -258113 -4160 -1
0 1;
#X obj 555 497 tgl 50 0 empty empty empty 17 7 0 10 -1 -4160 -1 0 1
;
#X obj 655 497 tgl 50 0 empty empty empty 17 7 0 10 -1 -4160 -1 0 1
;
#X obj 705 497 tgl 50 0 empty empty empty 17 7 0 10 -258113 -4160 -1
0 1;
#X obj 755 497 tgl 50 0 empty empty empty 17 7 0 10 -1 -4160 -1 0 1
;
#X obj 805 497 tgl 50 0 empty empty empty 17 7 0 10 -258113 -262144
-1 0 1;
#X obj 855 497 tgl 50 0 empty empty empty 17 7 0 10 -1 -4160 -1 0 1
;
#X obj 905 497 tgl 50 0 empty empty empty 17 7 0 10 -258113 -4160 -1
0 1;
#X obj 955 497 tgl 50 0 empty empty empty 17 7 0 10 -1 -4160 -1 0 1
;
#X obj 605 497 tgl 50 0 empty empty empty 17 7 0 10 -258113 -262144
-1 0 1;
#X obj 205 497 tgl 50 0 empty empty empty 17 7 0 10 -258113 -262144
-1 0 1;
#X obj 1016 498 hsl 50 50 0 1 0 0 empty empty Volumen -2 -8 0 10 -262144
-1 -1 4900 1;
#X obj 131 498 bng 50 250 50 0 empty empty Sound5 -15 -10 0 15 -1 -262144
-1;
#X obj 255 564 tgl 50 0 empty empty empty 17 7 0 10 -1 -4160 -1 0 1
;
#X obj 305 564 tgl 50 0 empty empty empty 17 7 0 10 -258113 -4160 -1
0 1;
#X obj 355 564 tgl 50 0 empty empty empty 17 7 0 10 -1 -4160 -1 0 1
;
#X obj 405 564 tgl 50 0 empty empty empty 17 7 0 10 -258113 -262144
-1 0 1;
#X obj 455 564 tgl 50 0 empty empty empty 17 7 0 10 -1 -4160 -1 0 1
;
#X obj 505 564 tgl 50 0 empty empty empty 17 7 0 10 -258113 -4160 -1
0 1;
#X obj 555 564 tgl 50 0 empty empty empty 17 7 0 10 -1 -4160 -1 0 1
;
#X obj 655 564 tgl 50 0 empty empty empty 17 7 0 10 -1 -4160 -1 0 1
;
#X obj 705 564 tgl 50 0 empty empty empty 17 7 0 10 -258113 -4160 -1
0 1;
#X obj 755 564 tgl 50 0 empty empty empty 17 7 0 10 -1 -4160 -1 0 1
;
#X obj 805 564 tgl 50 0 empty empty empty 17 7 0 10 -258113 -262144
-1 0 1;
#X obj 855 564 tgl 50 0 empty empty empty 17 7 0 10 -1 -4160 -1 0 1
;
#X obj 905 564 tgl 50 0 empty empty empty 17 7 0 10 -258113 -4160 -1
0 1;
#X obj 955 564 tgl 50 0 empty empty empty 17 7 0 10 -1 -4160 -1 0 1
;
#X obj 605 564 tgl 50 0 empty empty empty 17 7 0 10 -258113 -262144
-1 0 1;
#X obj 205 564 tgl 50 0 empty empty empty 17 7 0 10 -258113 -262144
-1 0 1;
#X obj 1016 565 hsl 50 50 0 1 0 0 empty empty Volumen -2 -8 0 10 -262144
-1 -1 0 1;
#X obj 131 565 bng 50 250 50 0 empty empty Sound6 -15 -10 0 15 -1 -262144
-1;
#X obj 255 631 tgl 50 0 empty empty empty 17 7 0 10 -1 -4160 -1 0 1
;
#X obj 305 631 tgl 50 0 empty empty empty 17 7 0 10 -258113 -4160 -1
0 1;
#X obj 355 631 tgl 50 0 empty empty empty 17 7 0 10 -1 -4160 -1 0 1
;
#X obj 405 631 tgl 50 0 empty empty empty 17 7 0 10 -258113 -262144
-1 0 1;
#X obj 455 631 tgl 50 0 empty empty empty 17 7 0 10 -1 -4160 -1 0 1
;
#X obj 505 631 tgl 50 0 empty empty empty 17 7 0 10 -258113 -4160 -1
0 1;
#X obj 555 631 tgl 50 0 empty empty empty 17 7 0 10 -1 -4160 -1 0 1
;
#X obj 655 631 tgl 50 0 empty empty empty 17 7 0 10 -1 -4160 -1 0 1
;
#X obj 705 631 tgl 50 0 empty empty empty 17 7 0 10 -258113 -4160 -1
0 1;
#X obj 755 631 tgl 50 0 empty empty empty 17 7 0 10 -1 -4160 -1 0 1
;
#X obj 805 631 tgl 50 0 empty empty empty 17 7 0 10 -258113 -262144
-1 0 1;
#X obj 855 631 tgl 50 0 empty empty empty 17 7 0 10 -1 -4160 -1 0 1
;
#X obj 905 631 tgl 50 0 empty empty empty 17 7 0 10 -258113 -4160 -1
0 1;
#X obj 955 631 tgl 50 0 empty empty empty 17 7 0 10 -1 -4160 -1 0 1
;
#X obj 605 631 tgl 50 0 empty empty empty 17 7 0 10 -258113 -262144
-1 0 1;
#X obj 205 631 tgl 50 0 empty empty empty 17 7 0 10 -258113 -262144
-1 0 1;
#X obj 1017 632 hsl 50 50 0 1 0 0 empty empty Volumen -2 -8 0 10 -262144
-1 -1 0 1;
#X obj 131 632 bng 50 250 50 0 empty empty Sound7 -15 -10 0 15 -1 -262144
-1;
#X obj 255 698 tgl 50 0 empty empty empty 17 7 0 10 -1 -4160 -1 0 1
;
#X obj 305 698 tgl 50 0 empty empty empty 17 7 0 10 -258113 -4160 -1
0 1;
#X obj 355 698 tgl 50 0 empty empty empty 17 7 0 10 -1 -4160 -1 0 1
;
#X obj 405 698 tgl 50 0 empty empty empty 17 7 0 10 -258113 -262144
-1 0 1;
#X obj 455 698 tgl 50 0 empty empty empty 17 7 0 10 -1 -4160 -1 0 1
;
#X obj 505 698 tgl 50 0 empty empty empty 17 7 0 10 -258113 -4160 -1
0 1;
#X obj 555 698 tgl 50 0 empty empty empty 17 7 0 10 -1 -4160 -1 0 1
;
#X obj 655 698 tgl 50 0 empty empty empty 17 7 0 10 -1 -4160 -1 0 1
;
#X obj 705 698 tgl 50 0 empty empty empty 17 7 0 10 -258113 -4160 -1
0 1;
#X obj 755 698 tgl 50 0 empty empty empty 17 7 0 10 -1 -4160 -1 0 1
;
#X obj 805 698 tgl 50 0 empty empty empty 17 7 0 10 -258113 -262144
-1 0 1;
#X obj 855 698 tgl 50 0 empty empty empty 17 7 0 10 -1 -4160 -1 0 1
;
#X obj 905 698 tgl 50 0 empty empty empty 17 7 0 10 -258113 -4160 -1
0 1;
#X obj 955 698 tgl 50 0 empty empty empty 17 7 0 10 -1 -4160 -1 0 1
;
#X obj 605 698 tgl 50 0 empty empty empty 17 7 0 10 -258113 -262144
-1 0 1;
#X obj 205 698 tgl 50 0 empty empty empty 17 7 0 10 -258113 -262144
-1 0 1;
#X obj 1016 699 hsl 50 50 0 1 0 0 empty empty Volumen -2 -8 0 10 -262144
-1 -1 0 1;
#X obj 131 699 bng 50 250 50 0 empty empty Sound8 -15 -10 0 15 -1 -262144
-1;
#X obj 139 838 vu 100 240 empty Nivel -1 -8 0 10 -66577 -1 1 0;
#X obj 2467 646 env~;
#X connect 0 0 3 0;
#X connect 0 0 4 0;
#X connect 1 0 0 1;
#X connect 2 0 1 0;
#X connect 3 0 5 0;
#X connect 5 0 7 0;
#X connect 5 0 132 0;
#X connect 5 0 115 0;
#X connect 5 0 149 0;
#X connect 5 0 174 0;
#X connect 5 0 208 0;
#X connect 5 0 191 0;
#X connect 5 0 225 0;
#X connect 6 0 41 0;
#X connect 7 0 35 0;
#X connect 7 1 6 0;
#X connect 7 2 9 0;
#X connect 7 3 11 0;
#X connect 7 4 13 0;
#X connect 7 5 15 0;
#X connect 7 6 17 0;
#X connect 7 7 19 0;
#X connect 7 8 36 0;
#X connect 7 9 21 0;
#X connect 7 10 23 0;
#X connect 7 11 25 0;
#X connect 7 12 27 0;
#X connect 7 13 29 0;
#X connect 7 14 31 0;
#X connect 7 15 33 0;
#X connect 8 0 6 1;
#X connect 9 0 41 0;
#X connect 10 0 9 1;
#X connect 11 0 41 0;
#X connect 12 0 11 1;
#X connect 13 0 41 0;
#X connect 14 0 13 1;
#X connect 15 0 41 0;
#X connect 16 0 15 1;
#X connect 17 0 41 0;
#X connect 18 0 17 1;
#X connect 19 0 41 0;
#X connect 20 0 19 1;
#X connect 21 0 41 0;
#X connect 22 0 21 1;
#X connect 23 0 41 0;
#X connect 24 0 23 1;
#X connect 25 0 41 0;
#X connect 26 0 25 1;
#X connect 27 0 41 0;
#X connect 28 0 27 1;
#X connect 29 0 41 0;
#X connect 30 0 29 1;
#X connect 31 0 41 0;
#X connect 32 0 31 1;
#X connect 33 0 41 0;
#X connect 34 0 33 1;
#X connect 35 0 41 0;
#X connect 36 0 41 0;
#X connect 37 0 36 1;
#X connect 38 0 35 1;
#X connect 40 0 250 0;
#X connect 40 0 250 1;
#X connect 41 0 169 0;
#X connect 42 0 45 0;
#X connect 45 0 43 0;
#X connect 46 0 77 0;
#X connect 48 0 79 0;
#X connect 50 0 81 0;
#X connect 52 0 83 0;
#X connect 54 0 85 0;
#X connect 56 0 87 0;
#X connect 58 0 89 0;
#X connect 60 0 91 0;
#X connect 62 0 93 0;
#X connect 64 0 95 0;
#X connect 66 0 97 0;
#X connect 68 0 99 0;
#X connect 70 0 101 0;
#X connect 72 0 103 0;
#X connect 74 0 105 0;
#X connect 77 0 47 0;
#X connect 79 0 49 0;
#X connect 81 0 51 0;
#X connect 83 0 53 0;
#X connect 85 0 55 0;
#X connect 87 0 57 0;
#X connect 89 0 59 0;
#X connect 91 0 61 0;
#X connect 93 0 63 0;
#X connect 95 0 65 0;
#X connect 97 0 67 0;
#X connect 99 0 69 0;
#X connect 101 0 71 0;
#X connect 103 0 73 0;
#X connect 105 0 75 0;
#X connect 114 0 166 0;
#X connect 115 0 129 0;
#X connect 115 1 114 0;
#X connect 115 2 116 0;
#X connect 115 3 117 0;
#X connect 115 4 118 0;
#X connect 115 5 119 0;
#X connect 115 6 120 0;
#X connect 115 7 121 0;
#X connect 115 8 130 0;
#X connect 115 9 122 0;
#X connect 115 10 123 0;
#X connect 115 11 124 0;
#X connect 115 12 125 0;
#X connect 115 13 126 0;
#X connect 115 14 127 0;
#X connect 115 15 128 0;
#X connect 116 0 166 0;
#X connect 117 0 166 0;
#X connect 118 0 166 0;
#X connect 119 0 166 0;
#X connect 120 0 166 0;
#X connect 121 0 166 0;
#X connect 122 0 166 0;
#X connect 123 0 166 0;
#X connect 124 0 166 0;
#X connect 125 0 166 0;
#X connect 126 0 166 0;
#X connect 127 0 166 0;
#X connect 128 0 166 0;
#X connect 129 0 166 0;
#X connect 130 0 166 0;
#X connect 131 0 165 0;
#X connect 132 0 146 0;
#X connect 132 1 131 0;
#X connect 132 2 133 0;
#X connect 132 3 134 0;
#X connect 132 4 135 0;
#X connect 132 5 136 0;
#X connect 132 6 137 0;
#X connect 132 7 138 0;
#X connect 132 8 147 0;
#X connect 132 9 139 0;
#X connect 132 10 140 0;
#X connect 132 11 141 0;
#X connect 132 12 142 0;
#X connect 132 13 143 0;
#X connect 132 14 144 0;
#X connect 132 15 145 0;
#X connect 133 0 165 0;
#X connect 134 0 165 0;
#X connect 135 0 165 0;
#X connect 136 0 165 0;
#X connect 137 0 165 0;
#X connect 138 0 165 0;
#X connect 139 0 165 0;
#X connect 140 0 165 0;
#X connect 141 0 165 0;
#X connect 142 0 165 0;
#X connect 143 0 165 0;
#X connect 144 0 165 0;
#X connect 145 0 165 0;
#X connect 146 0 165 0;
#X connect 147 0 165 0;
#X connect 148 0 167 0;
#X connect 149 0 163 0;
#X connect 149 1 148 0;
#X connect 149 2 150 0;
#X connect 149 3 151 0;
#X connect 149 4 152 0;
#X connect 149 5 153 0;
#X connect 149 6 154 0;
#X connect 149 7 155 0;
#X connect 149 8 164 0;
#X connect 149 9 156 0;
#X connect 149 10 157 0;
#X connect 149 11 158 0;
#X connect 149 12 159 0;
#X connect 149 13 160 0;
#X connect 149 14 161 0;
#X connect 149 15 162 0;
#X connect 150 0 167 0;
#X connect 151 0 167 0;
#X connect 152 0 167 0;
#X connect 153 0 167 0;
#X connect 154 0 167 0;
#X connect 155 0 167 0;
#X connect 156 0 167 0;
#X connect 157 0 167 0;
#X connect 158 0 167 0;
#X connect 159 0 167 0;
#X connect 160 0 167 0;
#X connect 161 0 167 0;
#X connect 162 0 167 0;
#X connect 163 0 167 0;
#X connect 164 0 167 0;
#X connect 165 0 170 0;
#X connect 166 0 171 0;
#X connect 167 0 172 0;
#X connect 168 0 169 1;
#X connect 169 0 259 0;
#X connect 170 0 260 0;
#X connect 171 0 261 0;
#X connect 172 0 262 0;
#X connect 173 0 245 0;
#X connect 174 0 188 0;
#X connect 174 1 173 0;
#X connect 174 2 175 0;
#X connect 174 3 176 0;
#X connect 174 4 177 0;
#X connect 174 5 178 0;
#X connect 174 6 179 0;
#X connect 174 7 180 0;
#X connect 174 8 189 0;
#X connect 174 9 181 0;
#X connect 174 10 182 0;
#X connect 174 11 183 0;
#X connect 174 12 184 0;
#X connect 174 13 185 0;
#X connect 174 14 186 0;
#X connect 174 15 187 0;
#X connect 175 0 245 0;
#X connect 176 0 245 0;
#X connect 177 0 245 0;
#X connect 178 0 245 0;
#X connect 179 0 245 0;
#X connect 180 0 245 0;
#X connect 181 0 245 0;
#X connect 182 0 245 0;
#X connect 183 0 245 0;
#X connect 184 0 245 0;
#X connect 185 0 245 0;
#X connect 186 0 245 0;
#X connect 187 0 245 0;
#X connect 188 0 245 0;
#X connect 189 0 245 0;
#X connect 190 0 247 0;
#X connect 191 0 205 0;
#X connect 191 1 190 0;
#X connect 191 2 192 0;
#X connect 191 3 193 0;
#X connect 191 4 194 0;
#X connect 191 5 195 0;
#X connect 191 6 196 0;
#X connect 191 7 197 0;
#X connect 191 8 206 0;
#X connect 191 9 198 0;
#X connect 191 10 199 0;
#X connect 191 11 200 0;
#X connect 191 12 201 0;
#X connect 191 13 202 0;
#X connect 191 14 203 0;
#X connect 191 15 204 0;
#X connect 192 0 247 0;
#X connect 193 0 247 0;
#X connect 194 0 247 0;
#X connect 195 0 247 0;
#X connect 196 0 247 0;
#X connect 197 0 247 0;
#X connect 198 0 247 0;
#X connect 199 0 247 0;
#X connect 200 0 247 0;
#X connect 201 0 247 0;
#X connect 202 0 247 0;
#X connect 203 0 247 0;
#X connect 204 0 247 0;
#X connect 205 0 247 0;
#X connect 206 0 247 0;
#X connect 207 0 246 0;
#X connect 208 0 222 0;
#X connect 208 1 207 0;
#X connect 208 2 209 0;
#X connect 208 3 210 0;
#X connect 208 4 211 0;
#X connect 208 5 212 0;
#X connect 208 6 213 0;
#X connect 208 7 214 0;
#X connect 208 8 223 0;
#X connect 208 9 215 0;
#X connect 208 10 216 0;
#X connect 208 11 217 0;
#X connect 208 12 218 0;
#X connect 208 13 219 0;
#X connect 208 14 220 0;
#X connect 208 15 221 0;
#X connect 209 0 246 0;
#X connect 210 0 246 0;
#X connect 211 0 246 0;
#X connect 212 0 246 0;
#X connect 213 0 246 0;
#X connect 214 0 246 0;
#X connect 215 0 246 0;
#X connect 216 0 246 0;
#X connect 217 0 246 0;
#X connect 218 0 246 0;
#X connect 219 0 246 0;
#X connect 220 0 246 0;
#X connect 221 0 246 0;
#X connect 222 0 246 0;
#X connect 223 0 246 0;
#X connect 224 0 248 0;
#X connect 225 0 239 0;
#X connect 225 1 224 0;
#X connect 225 2 226 0;
#X connect 225 3 227 0;
#X connect 225 4 228 0;
#X connect 225 5 229 0;
#X connect 225 6 230 0;
#X connect 225 7 231 0;
#X connect 225 8 240 0;
#X connect 225 9 232 0;
#X connect 225 10 233 0;
#X connect 225 11 234 0;
#X connect 225 12 235 0;
#X connect 225 13 236 0;
#X connect 225 14 237 0;
#X connect 225 15 238 0;
#X connect 226 0 248 0;
#X connect 227 0 248 0;
#X connect 228 0 248 0;
#X connect 229 0 248 0;
#X connect 230 0 248 0;
#X connect 231 0 248 0;
#X connect 232 0 248 0;
#X connect 233 0 248 0;
#X connect 234 0 248 0;
#X connect 235 0 248 0;
#X connect 236 0 248 0;
#X connect 237 0 248 0;
#X connect 238 0 248 0;
#X connect 239 0 248 0;
#X connect 240 0 248 0;
#X connect 241 0 263 0;
#X connect 242 0 264 0;
#X connect 243 0 265 0;
#X connect 244 0 266 0;
#X connect 245 0 241 0;
#X connect 246 0 242 0;
#X connect 247 0 243 0;
#X connect 248 0 244 0;
#X connect 249 0 0 0;
#X connect 250 0 39 0;
#X connect 250 0 395 0;
#X connect 250 1 39 1;
#X connect 250 1 395 0;
#X connect 252 0 250 0;
#X connect 253 0 250 0;
#X connect 254 0 252 0;
#X connect 255 0 253 0;
#X connect 256 0 257 0;
#X connect 257 0 250 0;
#X connect 258 0 40 0;
#X connect 267 0 42 0;
#X connect 268 0 131 1;
#X connect 269 0 133 1;
#X connect 270 0 134 1;
#X connect 271 0 135 1;
#X connect 272 0 136 1;
#X connect 273 0 137 1;
#X connect 274 0 138 1;
#X connect 275 0 139 1;
#X connect 276 0 140 1;
#X connect 277 0 141 1;
#X connect 278 0 142 1;
#X connect 279 0 143 1;
#X connect 280 0 144 1;
#X connect 281 0 145 1;
#X connect 282 0 147 1;
#X connect 283 0 146 1;
#X connect 284 0 170 1;
#X connect 285 0 46 0;
#X connect 286 0 114 1;
#X connect 287 0 116 1;
#X connect 288 0 117 1;
#X connect 289 0 118 1;
#X connect 290 0 119 1;
#X connect 291 0 120 1;
#X connect 292 0 121 1;
#X connect 293 0 122 1;
#X connect 294 0 123 1;
#X connect 295 0 124 1;
#X connect 296 0 125 1;
#X connect 297 0 126 1;
#X connect 298 0 127 1;
#X connect 299 0 128 1;
#X connect 300 0 130 1;
#X connect 301 0 129 1;
#X connect 302 0 171 1;
#X connect 303 0 48 0;
#X connect 304 0 148 1;
#X connect 305 0 150 1;
#X connect 306 0 151 1;
#X connect 307 0 152 1;
#X connect 308 0 153 1;
#X connect 309 0 154 1;
#X connect 310 0 155 1;
#X connect 311 0 156 1;
#X connect 312 0 157 1;
#X connect 313 0 158 1;
#X connect 314 0 159 1;
#X connect 315 0 160 1;
#X connect 316 0 161 1;
#X connect 317 0 162 1;
#X connect 318 0 164 1;
#X connect 319 0 163 1;
#X connect 320 0 172 1;
#X connect 321 0 50 0;
#X connect 322 0 173 1;
#X connect 323 0 175 1;
#X connect 324 0 176 1;
#X connect 325 0 177 1;
#X connect 326 0 178 1;
#X connect 327 0 179 1;
#X connect 328 0 180 1;
#X connect 329 0 181 1;
#X connect 330 0 182 1;
#X connect 331 0 183 1;
#X connect 332 0 184 1;
#X connect 333 0 185 1;
#X connect 334 0 186 1;
#X connect 335 0 187 1;
#X connect 336 0 189 1;
#X connect 337 0 188 1;
#X connect 338 0 241 1;
#X connect 339 0 52 0;
#X connect 340 0 207 1;
#X connect 341 0 209 1;
#X connect 342 0 211 1;
#X connect 343 0 210 1;
#X connect 344 0 212 1;
#X connect 345 0 213 1;
#X connect 346 0 214 1;
#X connect 347 0 215 1;
#X connect 348 0 216 1;
#X connect 349 0 217 1;
#X connect 350 0 218 1;
#X connect 351 0 219 1;
#X connect 352 0 220 1;
#X connect 353 0 221 1;
#X connect 354 0 223 1;
#X connect 355 0 222 1;
#X connect 356 0 242 1;
#X connect 357 0 54 0;
#X connect 358 0 190 1;
#X connect 359 0 192 1;
#X connect 360 0 193 1;
#X connect 361 0 194 1;
#X connect 362 0 195 1;
#X connect 363 0 196 1;
#X connect 364 0 197 1;
#X connect 365 0 198 1;
#X connect 366 0 199 1;
#X connect 367 0 200 1;
#X connect 368 0 201 1;
#X connect 369 0 202 1;
#X connect 370 0 203 1;
#X connect 371 0 204 1;
#X connect 372 0 206 1;
#X connect 373 0 205 1;
#X connect 374 0 243 1;
#X connect 375 0 56 0;
#X connect 376 0 224 1;
#X connect 377 0 226 1;
#X connect 378 0 227 1;
#X connect 379 0 228 1;
#X connect 380 0 229 1;
#X connect 381 0 230 1;
#X connect 382 0 231 1;
#X connect 383 0 232 1;
#X connect 384 0 233 1;
#X connect 385 0 234 1;
#X connect 386 0 235 1;
#X connect 387 0 236 1;
#X connect 388 0 237 1;
#X connect 389 0 238 1;
#X connect 390 0 240 1;
#X connect 391 0 239 1;
#X connect 392 0 244 1;
#X connect 393 0 58 0;
#X connect 395 0 394 0;
#X coords 0 -1 1 1 1000 1000 1 100 100;
