#N canvas 0 23 1366 719 10;
#X obj 127 139 metro;
#X obj 150 114 expr 60000/ $f1;
#X floatatom 150 75 5 0 0 2 BPM - -, f 5;
#X obj 39 171 cyclone/counter 15;
#X obj 180 155 bng 8 250 50 0 empty empty empty 17 7 0 10 -262144 -1
-1;
#X obj 76 195 hradio 15 1 0 16 empty empty empty 0 -8 0 10 -262144
-1 -1 5;
#X obj 74 296 spigot;
#X obj 76 219 select 0 1 2 3 4 5 6 7 8 9 10 11 12 13 14 15;
#X obj 111 281 tgl 7 0 empty empty empty 17 7 0 10 -262144 -1 -1 0
1;
#X obj 118 295 spigot;
#X obj 155 280 tgl 7 0 empty empty empty 17 7 0 10 -262144 -1 -1 1
1;
#X obj 163 295 spigot;
#X obj 201 280 tgl 7 0 empty empty empty 17 7 0 10 -262144 -1 -1 0
1;
#X obj 208 294 spigot;
#X obj 246 279 tgl 7 0 empty empty empty 17 7 0 10 -262144 -1 -1 0
1;
#X obj 253 294 spigot;
#X obj 290 279 tgl 7 0 empty empty empty 17 7 0 10 -262144 -1 -1 1
1;
#X obj 297 294 spigot;
#X obj 334 279 tgl 7 0 empty empty empty 17 7 0 10 -262144 -1 -1 0
1;
#X obj 341 293 spigot;
#X obj 379 278 tgl 7 0 empty empty empty 17 7 0 10 -262144 -1 -1 0
1;
#X obj 74 334 spigot;
#X obj 111 319 tgl 7 0 empty empty empty 17 7 0 10 -262144 -1 -1 0
1;
#X obj 118 334 spigot;
#X obj 155 319 tgl 7 0 empty empty empty 17 7 0 10 -262144 -1 -1 0
1;
#X obj 162 333 spigot;
#X obj 199 318 tgl 7 0 empty empty empty 17 7 0 10 -262144 -1 -1 0
1;
#X obj 207 332 spigot;
#X obj 244 317 tgl 7 0 empty empty empty 17 7 0 10 -262144 -1 -1 0
1;
#X obj 252 333 spigot;
#X obj 290 317 tgl 7 0 empty empty empty 17 7 0 10 -262144 -1 -1 0
1;
#X obj 297 332 spigot;
#X obj 334 317 tgl 7 0 empty empty empty 17 7 0 10 -262144 -1 -1 0
1;
#X obj 342 331 spigot;
#X obj 379 316 tgl 7 0 empty empty empty 17 7 0 10 -262144 -1 -1 0
1;
#X obj 28 297 spigot;
#X obj 28 335 spigot;
#X obj 65 320 tgl 7 0 empty empty empty 17 7 0 10 -262144 -1 -1 0 1
;
#X obj 63 284 tgl 7 0 empty empty empty 17 7 0 10 -262144 -1 -1 1 1
;
#X obj 1245 795 dac~;
#X obj 1012 686 hip~ 5;
#X obj 115 371 tabplay~ sonido1;
#X obj 1265 100 openpanel;
#X obj 1265 162 soundfiler;
#X obj 1261 43 table sonido1;
#X msg 1265 132 read -resize \$1 sonido1;
#X obj 1423 100 openpanel;
#X obj 1423 162 soundfiler;
#X obj 1576 100 openpanel;
#X obj 1576 162 soundfiler;
#X obj 1727 100 openpanel;
#X obj 1727 162 soundfiler;
#X obj 1265 261 openpanel;
#X obj 1265 323 soundfiler;
#X obj 1423 261 openpanel;
#X obj 1423 323 soundfiler;
#X obj 1576 261 openpanel;
#X obj 1576 323 soundfiler;
#X obj 1727 261 openpanel;
#X obj 1727 323 soundfiler;
#X obj 1266 420 openpanel;
#X obj 1266 482 soundfiler;
#X obj 1424 420 openpanel;
#X obj 1424 482 soundfiler;
#X obj 1577 420 openpanel;
#X obj 1577 482 soundfiler;
#X obj 1728 420 openpanel;
#X obj 1728 482 soundfiler;
#X obj 1266 581 openpanel;
#X obj 1266 643 soundfiler;
#X obj 1424 581 openpanel;
#X obj 1424 643 soundfiler;
#X obj 1577 581 openpanel;
#X obj 1577 643 soundfiler;
#X obj 1728 581 openpanel;
#X obj 1728 643 soundfiler;
#X obj 1419 43 table sonido2;
#X msg 1423 132 read -resize \$1 sonido2;
#X obj 1572 43 table sonido3;
#X msg 1576 132 read -resize \$1 sonido3;
#X obj 1723 43 table sonido4;
#X msg 1727 132 read -resize \$1 sonido4;
#X obj 1261 204 table sonido5;
#X msg 1265 293 read -resize \$1 sonido5;
#X obj 1419 204 table sonido6;
#X msg 1423 293 read -resize \$1 sonido6;
#X obj 1572 204 table sonido7;
#X msg 1576 293 read -resize \$1 sonido7;
#X obj 1723 204 table sonido8;
#X msg 1727 293 read -resize \$1 sonido8;
#X obj 1262 363 table sonido9;
#X msg 1266 452 read -resize \$1 sonido9;
#X obj 1420 363 table sonido10;
#X msg 1424 452 read -resize \$1 sonido10;
#X obj 1573 363 table sonido11;
#X msg 1577 452 read -resize \$1 sonido11;
#X obj 1724 363 table sonido12;
#X msg 1728 452 read -resize \$1 sonido12;
#X obj 1262 524 table sonido13;
#X msg 1266 613 read -resize \$1 sonido13;
#X obj 1420 524 table sonido14;
#X msg 1424 613 read -resize \$1 sonido14;
#X obj 1573 524 table sonido15;
#X msg 1577 613 read -resize \$1 sonido15;
#X obj 1724 524 table sonido16;
#X msg 1728 613 read -resize \$1 sonido16;
#X obj 196 1160 tabplay~ sonido1;
#X obj 300 1160 tabplay~ sonido1;
#X obj 405 1160 tabplay~ sonido1;
#X obj 509 1160 tabplay~ sonido1;
#X obj 196 1191 tabplay~ sonido1;
#X obj 300 1191 tabplay~ sonido1;
#X obj 405 1191 tabplay~ sonido1;
#X obj 509 1191 tabplay~ sonido1;
#X obj 74 511 spigot;
#X obj 76 434 select 0 1 2 3 4 5 6 7 8 9 10 11 12 13 14 15;
#X obj 111 496 tgl 8 0 empty empty empty 17 7 0 10 -262144 -1 -1 0
1;
#X obj 118 510 spigot;
#X obj 155 495 tgl 8 0 empty empty empty 17 7 0 10 -262144 -1 -1 1
1;
#X obj 163 510 spigot;
#X obj 201 495 tgl 8 0 empty empty empty 17 7 0 10 -262144 -1 -1 1
1;
#X obj 208 509 spigot;
#X obj 246 494 tgl 8 0 empty empty empty 17 7 0 10 -262144 -1 -1 1
1;
#X obj 253 509 spigot;
#X obj 290 494 tgl 8 0 empty empty empty 17 7 0 10 -262144 -1 -1 0
1;
#X obj 297 509 spigot;
#X obj 334 494 tgl 8 0 empty empty empty 17 7 0 10 -262144 -1 -1 0
1;
#X obj 341 508 spigot;
#X obj 379 493 tgl 8 0 empty empty empty 17 7 0 10 -262144 -1 -1 0
1;
#X obj 74 549 spigot;
#X obj 111 534 tgl 8 0 empty empty empty 17 7 0 10 -262144 -1 -1 0
1;
#X obj 118 549 spigot;
#X obj 155 534 tgl 8 0 empty empty empty 17 7 0 10 -262144 -1 -1 0
1;
#X obj 162 548 spigot;
#X obj 199 533 tgl 8 0 empty empty empty 17 7 0 10 -262144 -1 -1 0
1;
#X obj 207 547 spigot;
#X obj 244 532 tgl 8 0 empty empty empty 17 7 0 10 -262144 -1 -1 0
1;
#X obj 252 548 spigot;
#X obj 290 532 tgl 8 0 empty empty empty 17 7 0 10 -262144 -1 -1 0
1;
#X obj 297 547 spigot;
#X obj 334 532 tgl 8 0 empty empty empty 17 7 0 10 -262144 -1 -1 0
1;
#X obj 342 546 spigot;
#X obj 379 531 tgl 8 0 empty empty empty 17 7 0 10 -262144 -1 -1 0
1;
#X obj 28 512 spigot;
#X obj 28 550 spigot;
#X obj 65 535 tgl 8 0 empty empty empty 17 7 0 10 -262144 -1 -1 0 1
;
#X obj 63 499 tgl 8 0 empty empty empty 17 7 0 10 -262144 -1 -1 0 1
;
#X obj 498 295 spigot;
#X obj 500 218 select 0 1 2 3 4 5 6 7 8 9 10 11 12 13 14 15;
#X obj 535 280 tgl 8 0 empty empty empty 17 7 0 10 -262144 -1 -1 1
1;
#X obj 542 294 spigot;
#X obj 579 279 tgl 8 0 empty empty empty 17 7 0 10 -262144 -1 -1 0
1;
#X obj 587 294 spigot;
#X obj 625 279 tgl 8 0 empty empty empty 17 7 0 10 -262144 -1 -1 1
1;
#X obj 632 293 spigot;
#X obj 670 278 tgl 8 0 empty empty empty 17 7 0 10 -262144 -1 -1 0
1;
#X obj 677 293 spigot;
#X obj 714 278 tgl 8 0 empty empty empty 17 7 0 10 -262144 -1 -1 0
1;
#X obj 721 293 spigot;
#X obj 758 278 tgl 8 0 empty empty empty 17 7 0 10 -262144 -1 -1 1
1;
#X obj 765 292 spigot;
#X obj 803 277 tgl 8 0 empty empty empty 17 7 0 10 -262144 -1 -1 0
1;
#X obj 498 333 spigot;
#X obj 535 318 tgl 8 0 empty empty empty 17 7 0 10 -262144 -1 -1 0
1;
#X obj 542 333 spigot;
#X obj 579 318 tgl 8 0 empty empty empty 17 7 0 10 -262144 -1 -1 0
1;
#X obj 586 332 spigot;
#X obj 623 317 tgl 8 0 empty empty empty 17 7 0 10 -262144 -1 -1 0
1;
#X obj 631 331 spigot;
#X obj 668 316 tgl 8 0 empty empty empty 17 7 0 10 -262144 -1 -1 0
1;
#X obj 676 332 spigot;
#X obj 714 316 tgl 8 0 empty empty empty 17 7 0 10 -262144 -1 -1 0
1;
#X obj 721 331 spigot;
#X obj 758 316 tgl 8 0 empty empty empty 17 7 0 10 -262144 -1 -1 0
1;
#X obj 766 330 spigot;
#X obj 803 315 tgl 8 0 empty empty empty 17 7 0 10 -262144 -1 -1 0
1;
#X obj 452 296 spigot;
#X obj 452 334 spigot;
#X obj 489 319 tgl 8 0 empty empty empty 17 7 0 10 -262144 -1 -1 0
1;
#X obj 487 283 tgl 8 0 empty empty empty 17 7 0 10 -262144 -1 -1 0
1;
#X obj 499 513 spigot;
#X obj 501 436 select 0 1 2 3 4 5 6 7 8 9 10 11 12 13 14 15;
#X obj 536 498 tgl 8 0 empty empty empty 17 7 0 10 -262144 -1 -1 0
1;
#X obj 543 512 spigot;
#X obj 580 497 tgl 8 0 empty empty empty 17 7 0 10 -262144 -1 -1 0
1;
#X obj 588 512 spigot;
#X obj 626 497 tgl 8 0 empty empty empty 17 7 0 10 -262144 -1 -1 0
1;
#X obj 633 511 spigot;
#X obj 671 496 tgl 8 0 empty empty empty 17 7 0 10 -262144 -1 -1 0
1;
#X obj 678 511 spigot;
#X obj 715 496 tgl 8 0 empty empty empty 17 7 0 10 -262144 -1 -1 0
1;
#X obj 722 511 spigot;
#X obj 759 496 tgl 8 0 empty empty empty 17 7 0 10 -262144 -1 -1 0
1;
#X obj 766 510 spigot;
#X obj 499 551 spigot;
#X obj 536 536 tgl 8 0 empty empty empty 17 7 0 10 -262144 -1 -1 0
1;
#X obj 543 551 spigot;
#X obj 580 536 tgl 8 0 empty empty empty 17 7 0 10 -262144 -1 -1 0
1;
#X obj 587 550 spigot;
#X obj 624 535 tgl 8 0 empty empty empty 17 7 0 10 -262144 -1 -1 0
1;
#X obj 632 549 spigot;
#X obj 669 534 tgl 8 0 empty empty empty 17 7 0 10 -262144 -1 -1 0
1;
#X obj 677 550 spigot;
#X obj 715 534 tgl 8 0 empty empty empty 17 7 0 10 -262144 -1 -1 1
1;
#X obj 722 549 spigot;
#X obj 759 534 tgl 8 0 empty empty empty 17 7 0 10 -262144 -1 -1 1
1;
#X obj 767 548 spigot;
#X obj 453 514 spigot;
#X obj 453 552 spigot;
#X obj 490 537 tgl 8 0 empty empty empty 17 7 0 10 -262144 -1 -1 0
1;
#X obj 488 501 tgl 8 0 empty empty empty 17 7 0 10 -262144 -1 -1 0
1;
#X obj 543 369 tabplay~ sonido2;
#X obj 117 603 tabplay~ sonido3;
#X obj 540 592 tabplay~ sonido4;
#X obj 229 372 hsl 128 15 0 127 0 0 empty empty Volumen -2 -8 0 10
-262144 -1 -1 12700 1;
#X obj 195 398 *~;
#X obj 666 373 hsl 128 15 0 127 0 0 empty empty Volumen -2 -8 0 10
-262144 -1 -1 12700 1;
#X obj 632 399 *~;
#X obj 235 606 hsl 128 15 0 127 0 0 empty empty Volumen -2 -8 0 10
-262144 -1 -1 12700 1;
#X obj 201 632 *~;
#X obj 663 595 hsl 128 15 0 127 0 0 empty empty Volumen -2 -8 0 10
-262144 -1 -1 12700 1;
#X obj 629 621 *~;
#X obj 74 751 spigot;
#X obj 76 674 select 0 1 2 3 4 5 6 7 8 9 10 11 12 13 14 15;
#X obj 111 736 tgl 8 0 empty empty empty 17 7 0 10 -262144 -1 -1 0
1;
#X obj 118 750 spigot;
#X obj 155 735 tgl 8 0 empty empty empty 17 7 0 10 -262144 -1 -1 0
1;
#X obj 163 750 spigot;
#X obj 201 735 tgl 8 0 empty empty empty 17 7 0 10 -262144 -1 -1 0
1;
#X obj 208 749 spigot;
#X obj 246 734 tgl 8 0 empty empty empty 17 7 0 10 -262144 -1 -1 0
1;
#X obj 253 749 spigot;
#X obj 290 734 tgl 8 0 empty empty empty 17 7 0 10 -262144 -1 -1 0
1;
#X obj 297 749 spigot;
#X obj 334 734 tgl 8 0 empty empty empty 17 7 0 10 -262144 -1 -1 0
1;
#X obj 341 748 spigot;
#X obj 379 733 tgl 8 0 empty empty empty 17 7 0 10 -262144 -1 -1 0
1;
#X obj 74 789 spigot;
#X obj 111 774 tgl 8 0 empty empty empty 17 7 0 10 -262144 -1 -1 0
1;
#X obj 118 789 spigot;
#X obj 155 774 tgl 8 0 empty empty empty 17 7 0 10 -262144 -1 -1 0
1;
#X obj 162 788 spigot;
#X obj 199 773 tgl 8 0 empty empty empty 17 7 0 10 -262144 -1 -1 0
1;
#X obj 207 787 spigot;
#X obj 244 772 tgl 8 0 empty empty empty 17 7 0 10 -262144 -1 -1 0
1;
#X obj 252 788 spigot;
#X obj 290 772 tgl 8 0 empty empty empty 17 7 0 10 -262144 -1 -1 0
1;
#X obj 297 787 spigot;
#X obj 334 772 tgl 8 0 empty empty empty 17 7 0 10 -262144 -1 -1 0
1;
#X obj 342 786 spigot;
#X obj 379 771 tgl 8 0 empty empty empty 17 7 0 10 -262144 -1 -1 0
1;
#X obj 28 752 spigot;
#X obj 28 790 spigot;
#X obj 65 775 tgl 8 0 empty empty empty 17 7 0 10 -262144 -1 -1 0 1
;
#X obj 63 739 tgl 8 0 empty empty empty 17 7 0 10 -262144 -1 -1 0 1
;
#X obj 74 966 spigot;
#X obj 76 889 select 0 1 2 3 4 5 6 7 8 9 10 11 12 13 14 15;
#X obj 111 951 tgl 8 0 empty empty empty 17 7 0 10 -262144 -1 -1 0
1;
#X obj 118 965 spigot;
#X obj 155 950 tgl 8 0 empty empty empty 17 7 0 10 -262144 -1 -1 0
1;
#X obj 163 965 spigot;
#X obj 201 950 tgl 8 0 empty empty empty 17 7 0 10 -262144 -1 -1 0
1;
#X obj 208 964 spigot;
#X obj 246 949 tgl 8 0 empty empty empty 17 7 0 10 -262144 -1 -1 0
1;
#X obj 253 964 spigot;
#X obj 290 949 tgl 8 0 empty empty empty 17 7 0 10 -262144 -1 -1 0
1;
#X obj 297 964 spigot;
#X obj 334 949 tgl 8 0 empty empty empty 17 7 0 10 -262144 -1 -1 0
1;
#X obj 341 963 spigot;
#X obj 379 948 tgl 8 0 empty empty empty 17 7 0 10 -262144 -1 -1 0
1;
#X obj 74 1004 spigot;
#X obj 111 989 tgl 8 0 empty empty empty 17 7 0 10 -262144 -1 -1 0
1;
#X obj 118 1004 spigot;
#X obj 155 989 tgl 8 0 empty empty empty 17 7 0 10 -262144 -1 -1 0
1;
#X obj 162 1003 spigot;
#X obj 199 988 tgl 8 0 empty empty empty 17 7 0 10 -262144 -1 -1 0
1;
#X obj 207 1002 spigot;
#X obj 244 987 tgl 8 0 empty empty empty 17 7 0 10 -262144 -1 -1 0
1;
#X obj 252 1003 spigot;
#X obj 290 987 tgl 8 0 empty empty empty 17 7 0 10 -262144 -1 -1 0
1;
#X obj 297 1002 spigot;
#X obj 334 987 tgl 8 0 empty empty empty 17 7 0 10 -262144 -1 -1 0
1;
#X obj 342 1001 spigot;
#X obj 379 986 tgl 8 0 empty empty empty 17 7 0 10 -262144 -1 -1 0
1;
#X obj 28 967 spigot;
#X obj 28 1005 spigot;
#X obj 65 990 tgl 8 0 empty empty empty 17 7 0 10 -262144 -1 -1 0 1
;
#X obj 63 954 tgl 8 0 empty empty empty 17 7 0 10 -262144 -1 -1 0 1
;
#X obj 498 750 spigot;
#X obj 500 673 select 0 1 2 3 4 5 6 7 8 9 10 11 12 13 14 15;
#X obj 535 735 tgl 8 0 empty empty empty 17 7 0 10 -262144 -1 -1 0
1;
#X obj 542 749 spigot;
#X obj 579 734 tgl 8 0 empty empty empty 17 7 0 10 -262144 -1 -1 0
1;
#X obj 631 748 spigot;
#X obj 625 734 tgl 8 0 empty empty empty 17 7 0 10 -262144 -1 -1 0
1;
#X obj 585 750 spigot;
#X obj 670 733 tgl 8 0 empty empty empty 17 7 0 10 -262144 -1 -1 0
1;
#X obj 677 748 spigot;
#X obj 714 733 tgl 8 0 empty empty empty 17 7 0 10 -262144 -1 -1 0
1;
#X obj 721 748 spigot;
#X obj 758 733 tgl 8 0 empty empty empty 17 7 0 10 -262144 -1 -1 0
1;
#X obj 765 747 spigot;
#X obj 803 732 tgl 8 0 empty empty empty 17 7 0 10 -262144 -1 -1 0
1;
#X obj 498 788 spigot;
#X obj 535 773 tgl 8 0 empty empty empty 17 7 0 10 -262144 -1 -1 0
1;
#X obj 542 788 spigot;
#X obj 579 773 tgl 8 0 empty empty empty 17 7 0 10 -262144 -1 -1 0
1;
#X obj 586 787 spigot;
#X obj 623 772 tgl 8 0 empty empty empty 17 7 0 10 -262144 -1 -1 0
1;
#X obj 631 786 spigot;
#X obj 668 771 tgl 8 0 empty empty empty 17 7 0 10 -262144 -1 -1 0
1;
#X obj 676 787 spigot;
#X obj 714 771 tgl 8 0 empty empty empty 17 7 0 10 -262144 -1 -1 0
1;
#X obj 721 786 spigot;
#X obj 758 771 tgl 8 0 empty empty empty 17 7 0 10 -262144 -1 -1 0
1;
#X obj 766 785 spigot;
#X obj 803 770 tgl 8 0 empty empty empty 17 7 0 10 -262144 -1 -1 0
1;
#X obj 452 751 spigot;
#X obj 452 789 spigot;
#X obj 489 774 tgl 8 0 empty empty empty 17 7 0 10 -262144 -1 -1 0
1;
#X obj 487 738 tgl 8 0 empty empty empty 17 7 0 10 -262144 -1 -1 0
1;
#X obj 499 968 spigot;
#X obj 501 891 select 0 1 2 3 4 5 6 7 8 9 10 11 12 13 14 15;
#X obj 536 953 tgl 8 0 empty empty empty 17 7 0 10 -262144 -1 -1 0
1;
#X obj 543 967 spigot;
#X obj 580 952 tgl 8 0 empty empty empty 17 7 0 10 -262144 -1 -1 0
1;
#X obj 588 967 spigot;
#X obj 626 952 tgl 8 0 empty empty empty 17 7 0 10 -262144 -1 -1 0
1;
#X obj 633 966 spigot;
#X obj 671 951 tgl 8 0 empty empty empty 17 7 0 10 -262144 -1 -1 0
1;
#X obj 678 966 spigot;
#X obj 715 951 tgl 8 0 empty empty empty 17 7 0 10 -262144 -1 -1 0
1;
#X obj 722 966 spigot;
#X obj 759 951 tgl 8 0 empty empty empty 17 7 0 10 -262144 -1 -1 0
1;
#X obj 766 965 spigot;
#X obj 499 1006 spigot;
#X obj 536 991 tgl 8 0 empty empty empty 17 7 0 10 -262144 -1 -1 0
1;
#X obj 543 1006 spigot;
#X obj 580 991 tgl 8 0 empty empty empty 17 7 0 10 -262144 -1 -1 0
1;
#X obj 587 1005 spigot;
#X obj 624 990 tgl 8 0 empty empty empty 17 7 0 10 -262144 -1 -1 0
1;
#X obj 632 1004 spigot;
#X obj 669 989 tgl 8 0 empty empty empty 17 7 0 10 -262144 -1 -1 0
1;
#X obj 677 1005 spigot;
#X obj 715 989 tgl 8 0 empty empty empty 17 7 0 10 -262144 -1 -1 0
1;
#X obj 722 1004 spigot;
#X obj 759 989 tgl 8 0 empty empty empty 17 7 0 10 -262144 -1 -1 0
1;
#X obj 767 1003 spigot;
#X obj 453 969 spigot;
#X obj 453 1007 spigot;
#X obj 490 992 tgl 8 0 empty empty empty 17 7 0 10 -262144 -1 -1 0
1;
#X obj 488 956 tgl 8 0 empty empty empty 17 7 0 10 -262144 -1 -1 0
1;
#X obj 229 827 hsl 128 15 0 127 0 0 empty empty Volumen -2 -8 0 10
-262144 -1 -1 0 1;
#X obj 195 853 *~;
#X obj 666 828 hsl 128 15 0 127 0 0 empty empty Volumen -2 -8 0 10
-262144 -1 -1 0 1;
#X obj 632 854 *~;
#X obj 235 1061 hsl 128 15 0 127 0 0 empty empty Volumen -2 -8 0 10
-262144 -1 -1 0 1;
#X obj 201 1087 *~;
#X obj 663 1050 hsl 128 15 0 127 0 0 empty empty Volumen -2 -8 0 10
-262144 -1 -1 0 1;
#X obj 629 1076 *~;
#X obj 115 826 tabplay~ sonido5;
#X obj 543 824 tabplay~ sonido6;
#X obj 117 1058 tabplay~ sonido7;
#X obj 540 1047 tabplay~ sonido8;
#X obj 82 76 tgl 15 0 empty empty On/off 17 7 0 10 -262144 -1 -1 0
1;
#X obj 1099 747 freeverb~/freeverb~;
#X text 1119 721 libreria freeverb;
#X msg 1106 578 wet \$1;
#X msg 1106 626 dry \$1;
#X obj 1093 547 hsl 128 15 0 1 0 0 empty empty empty -2 -8 0 10 -262144
-1 -1 1400 1;
#X obj 1091 608 hsl 128 15 1 0 0 0 empty empty empty -2 -8 0 10 -262144
-1 -1 0 1;
#X obj 1080 668 hsl 128 15 0 1 0 0 empty empty empty -2 -8 0 10 -262144
-1 -1 0 1;
#X msg 1109 690 roomsize \$1;
#X obj 1063 420 catch~ secuenciador;
#X obj 231 398 throw~ secuenciador;
#X obj 677 400 throw~ secuenciador;
#X obj 246 633 throw~ secuenciador;
#X obj 674 623 throw~ secuenciador;
#X obj 232 852 throw~ secuenciador;
#X obj 672 854 throw~ secuenciador;
#X obj 241 1087 throw~ secuenciador;
#X obj 679 1076 throw~ secuenciador;
#X obj 1259 72 bng 15 250 50 0 empty empty empty 17 7 0 10 -262144
-1 -1;
#X obj 1424 72 bng 15 250 50 0 empty empty empty 17 7 0 10 -262144
-1 -1;
#X obj 1576 76 bng 15 250 50 0 empty empty empty 17 7 0 10 -262144
-1 -1;
#X obj 1727 71 bng 15 250 50 0 empty empty empty 17 7 0 10 -262144
-1 -1;
#X connect 0 0 3 0;
#X connect 0 0 4 0;
#X connect 1 0 0 1;
#X connect 2 0 1 0;
#X connect 3 0 5 0;
#X connect 5 0 7 0;
#X connect 5 0 148 0;
#X connect 5 0 115 0;
#X connect 5 0 181 0;
#X connect 5 0 223 0;
#X connect 5 0 289 0;
#X connect 5 0 256 0;
#X connect 5 0 322 0;
#X connect 6 0 41 0;
#X connect 7 0 35 0;
#X connect 7 1 6 0;
#X connect 7 2 9 0;
#X connect 7 3 11 0;
#X connect 7 4 13 0;
#X connect 7 5 15 0;
#X connect 7 6 17 0;
#X connect 7 7 19 0;
#X connect 7 8 36 0;
#X connect 7 9 21 0;
#X connect 7 10 23 0;
#X connect 7 11 25 0;
#X connect 7 12 27 0;
#X connect 7 13 29 0;
#X connect 7 14 31 0;
#X connect 7 15 33 0;
#X connect 8 0 6 1;
#X connect 9 0 41 0;
#X connect 10 0 9 1;
#X connect 11 0 41 0;
#X connect 12 0 11 1;
#X connect 13 0 41 0;
#X connect 14 0 13 1;
#X connect 15 0 41 0;
#X connect 16 0 15 1;
#X connect 17 0 41 0;
#X connect 18 0 17 1;
#X connect 19 0 41 0;
#X connect 20 0 19 1;
#X connect 21 0 41 0;
#X connect 22 0 21 1;
#X connect 23 0 41 0;
#X connect 24 0 23 1;
#X connect 25 0 41 0;
#X connect 26 0 25 1;
#X connect 27 0 41 0;
#X connect 28 0 27 1;
#X connect 29 0 41 0;
#X connect 30 0 29 1;
#X connect 31 0 41 0;
#X connect 32 0 31 1;
#X connect 33 0 41 0;
#X connect 34 0 33 1;
#X connect 35 0 41 0;
#X connect 36 0 41 0;
#X connect 37 0 36 1;
#X connect 38 0 35 1;
#X connect 40 0 365 0;
#X connect 40 0 365 1;
#X connect 41 0 215 0;
#X connect 42 0 45 0;
#X connect 45 0 43 0;
#X connect 46 0 77 0;
#X connect 48 0 79 0;
#X connect 50 0 81 0;
#X connect 52 0 83 0;
#X connect 54 0 85 0;
#X connect 56 0 87 0;
#X connect 58 0 89 0;
#X connect 60 0 91 0;
#X connect 62 0 93 0;
#X connect 64 0 95 0;
#X connect 66 0 97 0;
#X connect 68 0 99 0;
#X connect 70 0 101 0;
#X connect 72 0 103 0;
#X connect 74 0 105 0;
#X connect 77 0 47 0;
#X connect 79 0 49 0;
#X connect 81 0 51 0;
#X connect 83 0 53 0;
#X connect 85 0 55 0;
#X connect 87 0 57 0;
#X connect 89 0 59 0;
#X connect 91 0 61 0;
#X connect 93 0 63 0;
#X connect 95 0 65 0;
#X connect 97 0 67 0;
#X connect 99 0 69 0;
#X connect 101 0 71 0;
#X connect 103 0 73 0;
#X connect 105 0 75 0;
#X connect 114 0 212 0;
#X connect 115 0 143 0;
#X connect 115 1 114 0;
#X connect 115 2 117 0;
#X connect 115 3 119 0;
#X connect 115 4 121 0;
#X connect 115 5 123 0;
#X connect 115 6 125 0;
#X connect 115 7 127 0;
#X connect 115 8 144 0;
#X connect 115 9 129 0;
#X connect 115 10 131 0;
#X connect 115 11 133 0;
#X connect 115 12 135 0;
#X connect 115 13 137 0;
#X connect 115 14 139 0;
#X connect 115 15 141 0;
#X connect 116 0 114 1;
#X connect 117 0 212 0;
#X connect 118 0 117 1;
#X connect 119 0 212 0;
#X connect 120 0 119 1;
#X connect 121 0 212 0;
#X connect 122 0 121 1;
#X connect 123 0 212 0;
#X connect 124 0 123 1;
#X connect 125 0 212 0;
#X connect 126 0 125 1;
#X connect 127 0 212 0;
#X connect 128 0 127 1;
#X connect 129 0 212 0;
#X connect 130 0 129 1;
#X connect 131 0 212 0;
#X connect 132 0 131 1;
#X connect 133 0 212 0;
#X connect 134 0 133 1;
#X connect 135 0 212 0;
#X connect 136 0 135 1;
#X connect 137 0 212 0;
#X connect 138 0 137 1;
#X connect 139 0 212 0;
#X connect 140 0 139 1;
#X connect 141 0 212 0;
#X connect 142 0 141 1;
#X connect 143 0 212 0;
#X connect 144 0 212 0;
#X connect 145 0 144 1;
#X connect 146 0 143 1;
#X connect 147 0 211 0;
#X connect 148 0 176 0;
#X connect 148 1 147 0;
#X connect 148 2 150 0;
#X connect 148 3 152 0;
#X connect 148 4 154 0;
#X connect 148 5 156 0;
#X connect 148 6 158 0;
#X connect 148 7 160 0;
#X connect 148 8 177 0;
#X connect 148 9 162 0;
#X connect 148 10 164 0;
#X connect 148 11 166 0;
#X connect 148 12 168 0;
#X connect 148 13 170 0;
#X connect 148 14 172 0;
#X connect 148 15 174 0;
#X connect 149 0 147 1;
#X connect 150 0 211 0;
#X connect 151 0 150 1;
#X connect 152 0 211 0;
#X connect 153 0 152 1;
#X connect 154 0 211 0;
#X connect 155 0 154 1;
#X connect 156 0 211 0;
#X connect 157 0 156 1;
#X connect 158 0 211 0;
#X connect 159 0 158 1;
#X connect 160 0 211 0;
#X connect 161 0 160 1;
#X connect 162 0 211 0;
#X connect 163 0 162 1;
#X connect 164 0 211 0;
#X connect 165 0 164 1;
#X connect 166 0 211 0;
#X connect 167 0 166 1;
#X connect 168 0 211 0;
#X connect 169 0 168 1;
#X connect 170 0 211 0;
#X connect 171 0 170 1;
#X connect 172 0 211 0;
#X connect 173 0 172 1;
#X connect 174 0 211 0;
#X connect 175 0 174 1;
#X connect 176 0 211 0;
#X connect 177 0 211 0;
#X connect 178 0 177 1;
#X connect 179 0 176 1;
#X connect 180 0 213 0;
#X connect 181 0 207 0;
#X connect 181 1 180 0;
#X connect 181 2 183 0;
#X connect 181 3 185 0;
#X connect 181 4 187 0;
#X connect 181 5 189 0;
#X connect 181 6 191 0;
#X connect 181 7 193 0;
#X connect 181 8 208 0;
#X connect 181 9 194 0;
#X connect 181 10 196 0;
#X connect 181 11 198 0;
#X connect 181 12 200 0;
#X connect 181 13 202 0;
#X connect 181 14 204 0;
#X connect 181 15 206 0;
#X connect 182 0 180 1;
#X connect 183 0 213 0;
#X connect 184 0 183 1;
#X connect 185 0 213 0;
#X connect 186 0 185 1;
#X connect 187 0 213 0;
#X connect 188 0 187 1;
#X connect 189 0 213 0;
#X connect 190 0 189 1;
#X connect 191 0 213 0;
#X connect 192 0 191 1;
#X connect 193 0 213 0;
#X connect 194 0 213 0;
#X connect 195 0 194 1;
#X connect 196 0 213 0;
#X connect 197 0 196 1;
#X connect 198 0 213 0;
#X connect 199 0 198 1;
#X connect 200 0 213 0;
#X connect 201 0 200 1;
#X connect 202 0 213 0;
#X connect 203 0 202 1;
#X connect 204 0 213 0;
#X connect 205 0 204 1;
#X connect 206 0 213 0;
#X connect 207 0 213 0;
#X connect 208 0 213 0;
#X connect 209 0 208 1;
#X connect 210 0 207 1;
#X connect 211 0 217 0;
#X connect 212 0 219 0;
#X connect 213 0 221 0;
#X connect 214 0 215 1;
#X connect 215 0 374 0;
#X connect 216 0 217 1;
#X connect 217 0 375 0;
#X connect 218 0 219 1;
#X connect 219 0 376 0;
#X connect 220 0 221 1;
#X connect 221 0 377 0;
#X connect 222 0 360 0;
#X connect 223 0 251 0;
#X connect 223 1 222 0;
#X connect 223 2 225 0;
#X connect 223 3 227 0;
#X connect 223 4 229 0;
#X connect 223 5 231 0;
#X connect 223 6 233 0;
#X connect 223 7 235 0;
#X connect 223 8 252 0;
#X connect 223 9 237 0;
#X connect 223 10 239 0;
#X connect 223 11 241 0;
#X connect 223 12 243 0;
#X connect 223 13 245 0;
#X connect 223 14 247 0;
#X connect 223 15 249 0;
#X connect 224 0 222 1;
#X connect 225 0 360 0;
#X connect 226 0 225 1;
#X connect 227 0 360 0;
#X connect 228 0 227 1;
#X connect 229 0 360 0;
#X connect 230 0 229 1;
#X connect 231 0 360 0;
#X connect 232 0 231 1;
#X connect 233 0 360 0;
#X connect 234 0 233 1;
#X connect 235 0 360 0;
#X connect 236 0 235 1;
#X connect 237 0 360 0;
#X connect 238 0 237 1;
#X connect 239 0 360 0;
#X connect 240 0 239 1;
#X connect 241 0 360 0;
#X connect 242 0 241 1;
#X connect 243 0 360 0;
#X connect 244 0 243 1;
#X connect 245 0 360 0;
#X connect 246 0 245 1;
#X connect 247 0 360 0;
#X connect 248 0 247 1;
#X connect 249 0 360 0;
#X connect 250 0 249 1;
#X connect 251 0 360 0;
#X connect 252 0 360 0;
#X connect 253 0 252 1;
#X connect 254 0 251 1;
#X connect 255 0 362 0;
#X connect 256 0 284 0;
#X connect 256 1 255 0;
#X connect 256 2 258 0;
#X connect 256 3 260 0;
#X connect 256 4 262 0;
#X connect 256 5 264 0;
#X connect 256 6 266 0;
#X connect 256 7 268 0;
#X connect 256 8 285 0;
#X connect 256 9 270 0;
#X connect 256 10 272 0;
#X connect 256 11 274 0;
#X connect 256 12 276 0;
#X connect 256 13 278 0;
#X connect 256 14 280 0;
#X connect 256 15 282 0;
#X connect 257 0 255 1;
#X connect 258 0 362 0;
#X connect 259 0 258 1;
#X connect 260 0 362 0;
#X connect 261 0 260 1;
#X connect 262 0 362 0;
#X connect 263 0 262 1;
#X connect 264 0 362 0;
#X connect 265 0 264 1;
#X connect 266 0 362 0;
#X connect 267 0 266 1;
#X connect 268 0 362 0;
#X connect 269 0 268 1;
#X connect 270 0 362 0;
#X connect 271 0 270 1;
#X connect 272 0 362 0;
#X connect 273 0 272 1;
#X connect 274 0 362 0;
#X connect 275 0 274 1;
#X connect 276 0 362 0;
#X connect 277 0 276 1;
#X connect 278 0 362 0;
#X connect 279 0 278 1;
#X connect 280 0 362 0;
#X connect 281 0 280 1;
#X connect 282 0 362 0;
#X connect 283 0 282 1;
#X connect 284 0 362 0;
#X connect 285 0 362 0;
#X connect 286 0 285 1;
#X connect 287 0 284 1;
#X connect 288 0 361 0;
#X connect 289 0 317 0;
#X connect 289 1 288 0;
#X connect 289 2 291 0;
#X connect 289 3 293 0;
#X connect 289 4 295 0;
#X connect 289 5 297 0;
#X connect 289 6 299 0;
#X connect 289 7 301 0;
#X connect 289 8 318 0;
#X connect 289 9 303 0;
#X connect 289 10 305 0;
#X connect 289 11 307 0;
#X connect 289 12 309 0;
#X connect 289 13 311 0;
#X connect 289 14 313 0;
#X connect 289 15 315 0;
#X connect 290 0 288 1;
#X connect 291 0 361 0;
#X connect 292 0 291 1;
#X connect 293 0 361 0;
#X connect 294 0 293 1;
#X connect 295 0 361 0;
#X connect 296 0 295 1;
#X connect 297 0 361 0;
#X connect 298 0 297 1;
#X connect 299 0 361 0;
#X connect 300 0 299 1;
#X connect 301 0 361 0;
#X connect 302 0 301 1;
#X connect 303 0 361 0;
#X connect 304 0 303 1;
#X connect 305 0 361 0;
#X connect 306 0 305 1;
#X connect 307 0 361 0;
#X connect 308 0 307 1;
#X connect 309 0 361 0;
#X connect 310 0 309 1;
#X connect 311 0 361 0;
#X connect 312 0 311 1;
#X connect 313 0 361 0;
#X connect 314 0 313 1;
#X connect 315 0 361 0;
#X connect 316 0 315 1;
#X connect 317 0 361 0;
#X connect 318 0 361 0;
#X connect 319 0 318 1;
#X connect 320 0 317 1;
#X connect 321 0 363 0;
#X connect 322 0 348 0;
#X connect 322 1 321 0;
#X connect 322 2 324 0;
#X connect 322 3 326 0;
#X connect 322 4 328 0;
#X connect 322 5 330 0;
#X connect 322 6 332 0;
#X connect 322 7 334 0;
#X connect 322 8 349 0;
#X connect 322 9 335 0;
#X connect 322 10 337 0;
#X connect 322 11 339 0;
#X connect 322 12 341 0;
#X connect 322 13 343 0;
#X connect 322 14 345 0;
#X connect 322 15 347 0;
#X connect 323 0 321 1;
#X connect 324 0 363 0;
#X connect 325 0 324 1;
#X connect 326 0 363 0;
#X connect 327 0 326 1;
#X connect 328 0 363 0;
#X connect 329 0 328 1;
#X connect 330 0 363 0;
#X connect 331 0 330 1;
#X connect 332 0 363 0;
#X connect 333 0 332 1;
#X connect 334 0 363 0;
#X connect 335 0 363 0;
#X connect 336 0 335 1;
#X connect 337 0 363 0;
#X connect 338 0 337 1;
#X connect 339 0 363 0;
#X connect 340 0 339 1;
#X connect 341 0 363 0;
#X connect 342 0 341 1;
#X connect 343 0 363 0;
#X connect 344 0 343 1;
#X connect 345 0 363 0;
#X connect 346 0 345 1;
#X connect 347 0 363 0;
#X connect 348 0 363 0;
#X connect 349 0 363 0;
#X connect 350 0 349 1;
#X connect 351 0 348 1;
#X connect 352 0 353 1;
#X connect 353 0 378 0;
#X connect 354 0 355 1;
#X connect 355 0 379 0;
#X connect 356 0 357 1;
#X connect 357 0 380 0;
#X connect 358 0 359 1;
#X connect 359 0 381 0;
#X connect 360 0 353 0;
#X connect 361 0 355 0;
#X connect 362 0 357 0;
#X connect 363 0 359 0;
#X connect 364 0 0 0;
#X connect 365 0 39 0;
#X connect 365 1 39 1;
#X connect 367 0 365 0;
#X connect 368 0 365 0;
#X connect 369 0 367 0;
#X connect 370 0 368 0;
#X connect 371 0 372 0;
#X connect 372 0 365 0;
#X connect 373 0 40 0;
#X connect 382 0 42 0;
#X connect 383 0 46 0;
#X connect 384 0 48 0;
#X connect 385 0 50 0;
